<svg width="64" height="64" viewBox="0 0 64 64" fill="none" xmlns="http://www.w3.org/2000/svg">
  <!-- Outer circle with gradient -->
  <circle cx="32" cy="32" r="30" fill="url(#gradient1)" stroke="url(#gradient2)" stroke-width="2"/>
  
  <!-- Inner circles representing lending circle members -->
  <circle cx="32" cy="20" r="6" fill="url(#gradient3)" opacity="0.8"/>
  <circle cx="44" cy="32" r="6" fill="url(#gradient3)" opacity="0.8"/>
  <circle cx="32" cy="44" r="6" fill="url(#gradient3)" opacity="0.8"/>
  <circle cx="20" cy="32" r="6" fill="url(#gradient3)" opacity="0.8"/>
  
  <!-- Central shield representing security -->
  <path d="M32 12 L40 18 L40 26 L32 32 L24 26 L24 18 Z" fill="url(#gradient4)" stroke="url(#gradient5)" stroke-width="1.5"/>
  
  <!-- Lock icon in center -->
  <rect x="28" y="20" width="8" height="6" rx="1" fill="url(#gradient6)"/>
  <path d="M30 20 L30 16 C30 14.5 31.5 13 33 13 C34.5 13 36 14.5 36 16 L36 20" stroke="url(#gradient7)" stroke-width="1.5" fill="none"/>
  
  <!-- Encryption dots around the shield -->
  <circle cx="26" cy="16" r="1" fill="url(#gradient8)" opacity="0.6"/>
  <circle cx="38" cy="16" r="1" fill="url(#gradient8)" opacity="0.6"/>
  <circle cx="26" cy="28" r="1" fill="url(#gradient8)" opacity="0.6"/>
  <circle cx="38" cy="28" r="1" fill="url(#gradient8)" opacity="0.6"/>
  
  <!-- Gradients -->
  <defs>
    <linearGradient id="gradient1" x1="0%" y1="0%" x2="100%" y2="100%">
      <stop offset="0%" style="stop-color:#6366f1;stop-opacity:1" />
      <stop offset="100%" style="stop-color:#8b5cf6;stop-opacity:1" />
    </linearGradient>
    <linearGradient id="gradient2" x1="0%" y1="0%" x2="100%" y2="100%">
      <stop offset="0%" style="stop-color:#3b82f6;stop-opacity:1" />
      <stop offset="100%" style="stop-color:#1d4ed8;stop-opacity:1" />
    </linearGradient>
    <linearGradient id="gradient3" x1="0%" y1="0%" x2="100%" y2="100%">
      <stop offset="0%" style="stop-color:#10b981;stop-opacity:1" />
      <stop offset="100%" style="stop-color:#059669;stop-opacity:1" />
    </linearGradient>
    <linearGradient id="gradient4" x1="0%" y1="0%" x2="100%" y2="100%">
      <stop offset="0%" style="stop-color:#f59e0b;stop-opacity:1" />
      <stop offset="100%" style="stop-color:#d97706;stop-opacity:1" />
    </linearGradient>
    <linearGradient id="gradient5" x1="0%" y1="0%" x2="100%" y2="100%">
      <stop offset="0%" style="stop-color:#fbbf24;stop-opacity:1" />
      <stop offset="100%" style="stop-color:#f59e0b;stop-opacity:1" />
    </linearGradient>
    <linearGradient id="gradient6" x1="0%" y1="0%" x2="100%" y2="100%">
      <stop offset="0%" style="stop-color:#ef4444;stop-opacity:1" />
      <stop offset="100%" style="stop-color:#dc2626;stop-opacity:1" />
    </linearGradient>
    <linearGradient id="gradient7" x1="0%" y1="0%" x2="100%" y2="100%">
      <stop offset="0%" style="stop-color:#f87171;stop-opacity:1" />
      <stop offset="100%" style="stop-color:#ef4444;stop-opacity:1" />
    </linearGradient>
    <linearGradient id="gradient8" x1="0%" y1="0%" x2="100%" y2="100%">
      <stop offset="0%" style="stop-color:#8b5cf6;stop-opacity:1" />
      <stop offset="100%" style="stop-color:#7c3aed;stop-opacity:1" />
    </linearGradient>
  </defs>
</svg>
